{"title":"The.Final.2010.SWESUB.DVDRip.XviD.AC3.(5.1)-Zen_Bud","uid":5744721,"size":1470960918,"categoryP":"video","categoryS":"movies","magnet":"?xt=urn:btih:b2785b24547f36734721dff04df5e87e05d74d3b&amp;dn=The.Final.2010.SWESUB.DVDRip.XviD.AC3.%285.1%29-Zen_Bud&amp;tr=udp%3A%2F%2Ftracker.openbittorrent.com%3A80&amp;tr=udp%3A%2F%2Fopen.demonii.com%3A1337&amp;tr=udp%3A%2F%2Ftracker.coppersurfer.tk%3A6969&amp;tr=udp%3A%2F%2Fexodus.desync.com%3A6969","seeders":0,"leechers":0,"uploader":"Zen_Bud","files":-1,"time":1281168531,"description":"General\nComplete name                    : The.Final.2010.avi\nFormat                           : AVI\nFile size                        : 1.37 GiB\nDuration                         : 1h 32mn\nOverall bit rate                 : 2 114 Kbps\n\nVideo\n\nFormat                           : MPEG-4 Visual\nCodec ID/Hint                    : XviD\nDuration                         : 1h 32mn\nBit rate                         : 1 655 Kbps\nWidth                            : 720 pixels\nHeight                           : 356 pixels\nDisplay aspect ratio             : 2.35:1\nStream size                      : 1.07 GiB (78%)\nWriting library                  : XviD 1.1.2 (UTC 2006-11-01)\n\nAudio\n\nFormat                           : AC-3\nDuration                         : 1h 32mn\nBit rate                         : 448 Kbps\nChannel(s)                       : 6 channels\nChannel positions                : Front: L C R, Side: L R, LFE\nSampling rate                    : 48.0 KHz\nStream size                      : 297 MiB (21%)\n\n\n","torrent":{"xt":"urn:btih:b2785b24547f36734721dff04df5e87e05d74d3b","amp;dn":"The.Final.2010.SWESUB.DVDRip.XviD.AC3.%285.1%29-Zen_Bud","amp;tr":["udp%3A%2F%2Ftracker.openbittorrent.com%3A80","udp%3A%2F%2Fopen.demonii.com%3A1337","udp%3A%2F%2Ftracker.coppersurfer.tk%3A6969","udp%3A%2F%2Fexodus.desync.com%3A6969"],"infoHash":"b2785b24547f36734721dff04df5e87e05d74d3b","infoHashBuffer":{"type":"Buffer","data":[178,120,91,36,84,127,54,115,71,33,223,240,77,245,232,126,5,215,77,59]},"announce":[],"urlList":[]}}